<svg width="561" height="461" viewBox="0 0 561 461" fill="none" xmlns="http://www.w3.org/2000/svg">
<mask id="mask0_102_370" style="mask-type:luminance" maskUnits="userSpaceOnUse" x="266" y="415" width="37" height="36">
<path d="M302.54 415H266.54V451H302.54V415Z" fill="white"/>
</mask>
<g mask="url(#mask0_102_370)">
<path d="M284.54 420.535L302.14 415.349L297 433L302.14 450.601L284.54 445.465L266.89 450.601L272.07 433L266.89 415.349L284.54 420.535Z" fill="black" stroke="white" stroke-miterlimit="10"/>
</g>
<mask id="mask1_102_370" style="mask-type:luminance" maskUnits="userSpaceOnUse" x="31" y="301" width="100" height="100">
<path d="M130.994 350.728L81.266 301L31.5381 350.728L81.266 400.456L130.994 350.728Z" fill="white"/>
</mask>
<g mask="url(#mask1_102_370)">
<path d="M98.485 333.509L129.961 350.659L98.485 367.947L81.2661 399.354L64.0471 367.947L32.571 350.659L64.0471 333.509L81.2661 301.964L98.485 333.509Z" fill="black" stroke="white" stroke-miterlimit="10"/>
</g>
<path d="M538.12 377.333C536.22 380.777 532.68 383.268 527.58 384.813C522.49 386.359 515.87 386.943 507.91 386.6C491.99 385.913 470.79 381.524 445.78 373.868C395.76 358.558 330.59 330.216 262.15 292.465C193.716 254.715 134.982 214.717 95.35 180.575C75.53 163.501 60.508 147.909 51.435 134.81C46.897 128.259 43.864 122.355 42.452 117.218C41.041 112.084 41.26 107.762 43.16 104.319C45.06 100.875 48.598 98.384 53.693 96.839C58.791 95.293 65.403 94.709 73.364 95.052C89.285 95.739 110.487 100.128 135.501 107.784C185.521 123.094 250.68 151.436 319.12 189.187C387.56 226.937 446.3 266.934 485.93 301.077C505.75 318.15 520.77 333.742 529.84 346.842C534.38 353.393 537.41 359.297 538.83 364.434C540.24 369.568 540.02 373.889 538.12 377.333Z" stroke="black"/>
<path d="M517.89 414.007C515.99 417.451 512.45 419.942 507.35 421.487C502.26 423.033 495.64 423.617 487.68 423.273C471.76 422.587 450.56 418.198 425.55 410.542C375.53 395.232 310.36 366.89 241.92 329.139C173.485 291.388 114.752 251.391 75.119 217.249C55.3 200.175 40.278 184.583 31.204 171.483C26.667 164.933 23.633 159.029 22.222 153.892C20.81 148.758 21.03 144.436 22.93 140.992C24.829 137.549 28.367 135.057 33.463 133.512C38.561 131.967 45.1729 131.383 53.1339 131.726C69.0539 132.413 90.256 136.802 115.27 144.458C165.291 159.767 230.453 188.11 298.89 225.86C367.33 263.611 426.06 303.608 465.7 337.75C485.52 354.824 500.54 370.416 509.61 383.516C514.15 390.067 517.18 395.971 518.6 401.107C520.01 406.241 519.79 410.563 517.89 414.007Z" stroke="black"/>
<path d="M497.66 450.681C495.76 454.125 492.22 456.616 487.13 458.161C482.03 459.707 475.42 460.291 467.45 459.948C451.53 459.261 430.33 454.872 405.32 447.216C355.3 431.906 290.14 403.564 221.696 365.813C153.257 328.063 94.523 288.066 54.891 253.923C35.071 236.85 20.0491 221.258 10.9761 208.158C6.43806 201.607 3.40503 195.703 1.99303 190.566C0.582026 185.432 0.801034 181.111 2.70103 177.667C4.60103 174.223 8.13905 171.732 13.2341 170.187C18.3321 168.641 24.9441 168.057 32.9051 168.4C48.8261 169.087 70.028 173.476 95.042 181.132C145.062 196.442 210.224 224.784 278.66 262.535C347.1 300.285 405.84 340.283 445.47 374.425C465.29 391.499 480.31 407.091 489.38 420.19C493.92 426.741 496.95 432.645 498.37 437.782C499.78 442.916 499.56 447.237 497.66 450.681Z" stroke="black"/>
<path d="M105.037 108C113.597 108 120.537 101.06 120.537 92.5C120.537 83.9396 113.597 77 105.037 77C96.4766 77 89.537 83.9396 89.537 92.5C89.537 101.06 96.4766 108 105.037 108Z" fill="#B9FF66"/>
<path d="M394.54 433C400.063 433 404.54 428.523 404.54 423C404.54 417.477 400.063 413 394.54 413C389.017 413 384.54 417.477 384.54 423C384.54 428.523 389.017 433 394.54 433Z" fill="#B9FF66"/>
<path d="M55.037 76C68.0157 76 78.537 65.4787 78.537 52.5C78.537 39.5213 68.0157 29 55.037 29C42.0583 29 31.537 39.5213 31.537 52.5C31.537 65.4787 42.0583 76 55.037 76Z" fill="black"/>
<path d="M279.51 371.59C273.21 373.744 266 369.474 263.5 362.071L224.496 247.809L247.28 240.014L286.32 354.433C288.83 361.758 285.77 369.435 279.51 371.59Z" fill="black"/>
<path d="M276.1 373C274.26 373 272.38 372.569 270.58 371.668C266.94 369.866 264.04 366.498 262.63 362.345L223.635 248.084C223.478 247.653 223.713 247.144 224.183 246.987L246.97 239.192C247.21 239.113 247.44 239.113 247.64 239.231C247.83 239.348 247.99 239.505 248.07 239.74L287.11 354.159C289.73 361.914 286.44 370.101 279.74 372.412C278.61 372.804 277.36 373 276.1 373ZM225.593 248.358L264.32 361.797C265.57 365.518 268.15 368.574 271.36 370.14C273.95 371.394 276.73 371.629 279.24 370.767C285.03 368.769 287.85 361.562 285.5 354.707L246.74 241.111L225.593 248.358Z" fill="black"/>
<path d="M243.25 141.382L169.522 193.988L140.821 223.798L129.544 243.736L129.505 243.892C127.273 247.339 128.565 255.291 132.755 263.399C136.866 271.39 142.661 276.953 146.733 277.266L146.616 277.344L168.269 279.695L208.794 273.231L294.82 242.443L401.75 260.775L402.5 260.814C375.63 255.8 339.38 219.88 313.03 169.076C286.71 118.31 278.33 68.132 289.88 43.376H289.85L243.84 140.128L243.25 141.382Z" fill="#B9FF66"/>
<path d="M420.27 258.603C446.69 244.873 441.58 182.629 408.85 119.577C376.12 56.5252 328.16 16.5412 301.74 30.2712C275.31 44.0012 280.42 106.245 313.15 169.297C345.88 232.349 393.84 272.333 420.27 258.603Z" fill="white"/>
<path d="M408.64 262.185C397.13 262.185 383.27 255.761 368.35 243.266C348.03 226.266 328.1 200.06 312.24 169.428C288.24 123.05 278.33 75.4961 287.03 48.2731C289.92 39.1851 294.78 32.8391 301.4 29.4311C314.55 22.6941 333.07 28.4131 353.59 45.5701C373.91 62.5701 393.84 88.7751 409.7 119.407C433.74 165.786 443.65 213.339 434.92 240.563C432.02 249.651 427.16 255.996 420.55 259.404C416.98 261.284 412.99 262.185 408.64 262.185ZM313.38 28.4131C309.35 28.4131 305.59 29.2351 302.22 30.9981C295.99 34.1711 291.45 40.203 288.71 48.86C280.14 75.692 290 122.737 313.81 168.723C346.23 231.279 393.76 271.312 419.8 257.955C426.03 254.782 430.57 248.75 433.31 240.093C441.89 213.261 432.02 166.216 408.21 120.23C379.98 65.7821 340.36 28.4131 313.38 28.4131Z" fill="black"/>
<path d="M408.64 262.185C397.13 262.185 383.27 255.761 368.35 243.266C348.03 226.265 328.1 200.06 312.24 169.428C288.24 123.05 278.33 75.4959 287.03 48.2719C289.92 39.1849 294.78 32.8389 301.4 29.4309C310.21 24.8869 321.72 26.0229 334.68 32.6819C347.09 39.0669 360.52 50.3879 373.6 65.3899C373.91 65.7429 373.87 66.2909 373.52 66.6039C373.17 66.9179 372.62 66.8789 372.31 66.5259C345.76 36.0509 318.9 22.4199 302.22 30.9979C295.99 34.1709 291.45 40.2029 288.71 48.8599C280.14 75.6919 290 122.737 313.81 168.723C342 223.132 381.67 260.54 408.6 260.54C412.64 260.54 416.4 259.717 419.76 257.955C425.99 254.782 430.53 248.75 433.27 240.093C441.85 213.261 431.98 166.216 408.17 120.23C401.09 106.52 393.1 93.6319 384.52 81.9199C384.25 81.5289 384.33 80.9799 384.72 80.7059C385.11 80.4319 385.66 80.5099 385.93 80.9019C394.59 92.6919 402.57 105.658 409.74 119.446C433.74 165.785 443.65 213.339 434.92 240.563C432.02 249.65 427.16 255.996 420.55 259.404C416.98 261.284 412.99 262.185 408.64 262.185Z" fill="black"/>
<path d="M360.3 178.339C366.43 175.158 365.25 160.75 357.67 146.159C350.1 131.567 339 122.316 332.87 125.497C326.75 128.678 327.93 143.085 335.5 157.677C343.08 172.269 354.18 181.519 360.3 178.339Z" fill="#B9FF66"/>
<path d="M357.62 179.848C350.89 179.848 341.49 171.152 334.72 158.03C329.08 147.14 326.77 135.937 328.85 129.474C329.59 127.202 330.8 125.596 332.49 124.734C339.14 121.326 350.54 130.61 358.45 145.847C364.09 156.737 366.4 167.94 364.32 174.403C363.58 176.675 362.36 178.281 360.68 179.143C359.74 179.613 358.72 179.848 357.62 179.848ZM335.54 125.714C334.72 125.714 333.94 125.87 333.27 126.223C331.98 126.889 331.04 128.142 330.45 129.983C328.53 136.016 330.76 146.748 336.21 157.246C343.41 171.152 354.26 180.514 359.86 177.615C361.15 176.949 362.09 175.696 362.68 173.855C364.59 167.783 362.32 157.09 356.92 146.592C350.58 134.41 341.49 125.714 335.54 125.714Z" fill="#B9FF66"/>
<path d="M402.69 247.574C392.59 247.574 380.45 241.934 367.37 231.005C349.6 216.12 332.13 193.166 318.27 166.373C297.25 125.792 288.59 84.1531 296.19 60.2981C298.73 52.3071 303 46.7451 308.84 43.7291C322.23 36.8741 341.92 44.7861 362.91 65.4291C363.26 65.7821 363.26 66.2911 362.91 66.6441C362.56 66.9961 362.05 66.9961 361.7 66.6441C341.26 46.5491 322.27 38.7151 309.62 45.2561C304.22 48.0371 300.26 53.2471 297.83 60.8071C290.36 84.2311 298.97 125.361 319.8 165.589C344.43 213.182 379.08 245.851 402.65 245.851C406.18 245.851 409.43 245.107 412.4 243.618C417.81 240.837 421.76 235.627 424.19 228.067C431.67 204.643 423.05 163.513 402.22 123.285C395.92 111.142 388.87 99.7431 381.27 89.4411C381 89.0491 381.08 88.5011 381.47 88.2271C381.86 87.9531 382.41 88.0311 382.68 88.4231C390.36 98.8421 397.45 110.28 403.79 122.501C424.81 163.082 433.47 204.721 425.87 228.576C423.33 236.567 419.06 242.13 413.22 245.146C410.01 246.752 406.49 247.574 402.69 247.574Z" fill="black"/>
<path d="M168.309 280.517C168.27 280.517 168.23 280.517 168.23 280.517L146.578 278.167C146.46 278.167 146.343 278.128 146.225 278.05C141.761 277.344 136.123 271.704 132.012 263.791C127.626 255.448 126.334 247.3 128.723 243.462L128.762 243.344L140.039 223.367C140.078 223.289 140.117 223.249 140.156 223.21L168.857 193.401C168.896 193.362 168.935 193.323 168.974 193.284L242.51 140.794L289.02 42.9851C289.14 42.7891 289.3 42.6321 289.53 42.5541C289.77 42.4751 290 42.4751 290.2 42.5931C290.63 42.7891 290.83 43.2981 290.63 43.7291C278.84 68.9941 288.16 119.211 313.77 168.645C339.42 218.157 375.17 254.821 402.69 259.874C403.12 259.953 403.44 260.344 403.4 260.814C403.36 261.245 402.97 261.559 402.54 261.598L401.79 261.559C401.75 261.559 401.71 261.559 401.67 261.559L294.94 243.266L209.108 273.976C209.069 273.976 208.991 274.015 208.952 274.015L168.426 280.478C168.387 280.517 168.348 280.517 168.309 280.517ZM147.204 276.522L168.309 278.794L208.639 272.331L294.62 241.581C294.78 241.542 294.9 241.503 295.05 241.542L391.14 257.994C365.18 246.595 334.84 212.947 312.32 169.468C289.96 126.301 279.98 82.4691 285.46 54.7751L244.03 141.735C243.96 141.852 243.88 141.97 243.76 142.048L170.11 194.655L141.526 224.307L130.25 244.284C130.25 244.323 130.211 244.363 130.211 244.363C128.175 247.535 129.545 255.37 133.5 263.008C137.376 270.49 142.975 276.13 146.812 276.404C146.969 276.404 147.087 276.444 147.204 276.522Z" fill="black"/>
<path d="M243.37 141.069L289.84 43.3369H289.88C278.33 68.0929 286.75 118.271 313.02 169.037C339.38 219.881 375.63 255.8 402.57 260.736L401.83 260.697L295.05 242.404L292.59 241.973C280.17 239.779 263.61 223.641 251.75 200.608C239.57 176.988 237.42 153.447 242.82 142.244L243.37 141.069Z" fill="white"/>
<path d="M402.57 261.598L401.79 261.558C401.75 261.558 401.71 261.558 401.67 261.558L294.9 243.266L292.43 242.835C279.31 240.524 262.67 223.719 250.96 201.039C237.69 175.265 237.02 152.311 242.04 141.891L242.62 140.716L289.1 43.0242C289.22 42.8282 289.38 42.6712 289.61 42.5932C289.85 42.5142 290.08 42.5142 290.28 42.6322C290.71 42.8282 290.9 43.3372 290.71 43.7682C278.92 69.0332 288.24 119.25 313.85 168.684C339.49 218.196 375.24 254.86 402.77 259.913C403.2 259.992 403.51 260.383 403.47 260.853C403.36 261.245 403 261.598 402.57 261.598ZM285.38 54.7752L244.15 141.46L243.56 142.635C238.59 152.977 240.04 176.087 252.49 200.217C263.96 222.466 280.13 238.918 292.74 241.111L295.21 241.542L391.1 257.994C365.14 246.595 334.8 212.947 312.28 169.467C289.92 126.301 279.94 82.4692 285.38 54.7752Z" fill="black"/>
<path d="M167.133 280.4C167.094 280.4 167.055 280.4 167.055 280.4L146.538 278.206C146.42 278.206 146.303 278.167 146.185 278.089C141.722 277.383 136.083 271.743 131.972 263.83C127.626 255.448 126.334 247.3 128.722 243.461L128.761 243.344L140.038 223.367C140.273 222.936 140.782 222.818 141.213 223.053C141.643 223.288 141.761 223.798 141.526 224.228L130.249 244.284C130.249 244.323 130.21 244.362 130.21 244.362C128.174 247.535 129.544 255.369 133.499 263.008C137.375 270.489 142.975 276.13 146.812 276.404C146.929 276.404 147.086 276.443 147.164 276.522L167.212 278.676C167.682 278.715 168.034 279.146 167.956 279.616C167.917 280.047 167.564 280.4 167.133 280.4Z" fill="black"/>
<path d="M168.504 279.538C161.847 279.068 152.528 269.628 145.754 256.584C138.589 242.757 136.905 228.459 141.291 223.367L129.583 243.736L129.505 243.893C127.273 247.34 128.565 255.291 132.755 263.4C136.866 271.391 142.661 276.953 146.733 277.266L146.616 277.345L168.504 279.538Z" fill="white"/>
<path d="M168.504 280.4C168.465 280.4 168.465 280.4 168.426 280.4C168.269 280.4 168.073 280.361 167.917 280.361L146.538 278.206C146.42 278.206 146.303 278.167 146.185 278.089C141.722 277.384 136.083 271.743 131.972 263.83C127.626 255.448 126.334 247.3 128.722 243.462L128.761 243.344L139.059 225.404C139.451 224.385 139.96 223.484 140.586 222.74C140.86 222.388 141.369 222.348 141.722 222.583C142.074 222.858 142.192 223.328 141.957 223.719L140.508 226.187C138.198 232.415 140.469 244.637 146.42 256.075C152.881 268.57 161.691 277.697 167.995 278.52L168.465 278.559C168.935 278.598 169.287 279.029 169.248 279.499C169.287 280.047 168.935 280.4 168.504 280.4ZM147.164 276.522L162.122 278.05C156.366 274.367 150.023 266.768 144.972 256.976C140.077 247.535 137.65 237.743 138.041 230.692L130.249 244.284C130.249 244.323 130.21 244.363 130.21 244.363C128.174 247.535 129.544 255.37 133.499 263.008C137.375 270.49 142.975 276.13 146.812 276.404C146.929 276.404 147.086 276.444 147.164 276.522Z" fill="black"/>
<path d="M207.345 273.388L209.068 273.035C199.749 274.994 185.027 260.892 174.651 240.876C164.04 220.429 162.043 200.021 169.56 193.988L168.582 194.968L141.369 223.249C136.905 228.263 138.55 242.639 145.754 256.544C152.685 269.941 162.513 279.499 169.208 279.459L207.345 273.388Z" fill="black"/>
<path d="M169.17 280.36C162.043 280.36 152.137 270.764 144.972 256.975C137.689 242.874 135.849 228.146 140.704 222.701L167.408 194.968C167.878 194.341 168.426 193.793 169.013 193.323C169.365 193.048 169.875 193.088 170.188 193.401C170.501 193.753 170.501 194.263 170.188 194.576L168.661 196.182C163.218 203.468 165.92 222.113 175.435 240.484C185.693 260.305 200.024 273.897 208.795 272.252L208.912 272.213C209.382 272.135 209.813 272.409 209.93 272.879C210.009 273.349 209.735 273.78 209.265 273.897C209.226 273.897 209.186 273.897 209.147 273.936L207.542 274.25H207.503L169.365 280.321C169.287 280.321 169.209 280.36 169.17 280.36ZM165.137 199.825L141.996 223.876C137.689 228.733 139.647 242.913 146.538 256.192C153.273 269.197 162.787 278.598 169.17 278.637L202.843 273.27C193.759 270.058 182.561 257.955 173.908 241.307C165.685 225.443 162.513 209.304 165.137 199.825Z" fill="black"/>
<path d="M332.88 125.479C326.73 128.612 327.63 143.145 335.46 157.638C348.58 181.885 359.03 179.025 360.25 178.594C360.29 178.594 360.29 178.634 360.25 178.634L337.73 196.77C331.12 187.486 324.81 177.145 319.02 165.981C313.5 155.288 308.84 144.633 305.16 134.292L332.88 125.479Z" fill="black"/>
<path d="M337.73 197.631C337.69 197.631 337.66 197.631 337.62 197.631C337.38 197.592 337.19 197.475 337.03 197.279C330.25 187.76 323.95 177.341 318.27 166.412C312.83 155.914 308.13 145.221 304.37 134.645C304.29 134.41 304.29 134.174 304.41 133.979C304.53 133.783 304.69 133.626 304.92 133.548L332.64 124.734C333.07 124.617 333.54 124.813 333.7 125.243C333.86 125.674 333.7 126.144 333.31 126.34C331.98 127.006 331 128.338 330.41 130.297C328.49 136.446 330.84 147.336 336.28 157.325C349.09 180.984 358.96 178.281 360.01 177.889C360.4 177.733 360.87 177.928 361.07 178.281C361.27 178.634 361.19 179.143 360.87 179.417L338.28 197.436C338.13 197.553 337.93 197.631 337.73 197.631ZM306.29 134.84C310.01 145.064 314.55 155.405 319.8 165.59C325.28 176.166 331.39 186.233 337.93 195.516L357.47 179.77C353 179.574 344.59 176.244 334.72 158.03C329 147.493 326.65 136.368 328.73 129.67C329 128.808 329.32 128.064 329.71 127.359L306.29 134.84Z" fill="black"/>
<path d="M448.72 69.5969C466.62 60.1939 473.55 38.1159 464.19 20.2849C454.83 2.45492 432.73 -4.37709 414.83 5.02691C396.93 14.4309 390.01 36.5079 399.37 54.3389C408.73 72.1699 430.82 79.0009 448.72 69.5969Z" fill="black"/>
<path d="M415.1 29.2351C416.83 26.8851 419.37 25.4361 422.27 25.1221C424.46 24.8871 426.5 25.3571 428.42 26.5321C429.4 27.1201 430.26 27.8641 431.08 28.7651C431.67 27.7081 432.37 26.7671 433.19 25.9841C434.8 24.4171 436.72 23.5161 438.87 23.2811C441.77 22.9681 444.59 23.8301 446.78 25.7491C448.93 27.6291 450.31 30.3711 450.66 33.4661C451.01 36.6391 450.15 39.6941 447.96 43.0631C446 46.0791 443.02 49.2121 439.58 52.8941C438.4 54.1481 437.07 55.5581 435.7 57.0471C435.35 57.4381 434.84 57.7131 434.29 57.7521C433.74 57.8301 433.23 57.6731 432.76 57.3601C431.08 56.1851 429.47 55.0881 428.06 54.1481C423.91 51.3281 420.31 48.8991 417.73 46.3921C414.83 43.6111 413.34 40.7911 412.99 37.6181C412.68 34.5231 413.42 31.5461 415.1 29.2351Z" fill="white"/>
<path d="M550.27 71.5919C563.38 58.4829 563.38 37.2279 550.27 24.1179C537.17 11.0089 515.92 11.0089 502.82 24.1179C489.71 37.2279 489.71 58.4829 502.82 71.5919C515.92 84.7019 537.17 84.7019 550.27 71.5919Z" fill="#B9FF66"/>
<path d="M526.54 82.2731C507.59 82.2731 492.12 66.8401 492.12 47.8421C492.12 28.8831 507.55 13.4111 526.54 13.4111C545.53 13.4111 560.96 28.8441 560.96 47.8421C560.96 66.8011 545.53 82.2731 526.54 82.2731ZM526.54 15.1341C508.53 15.1341 493.84 29.7841 493.84 47.8421C493.84 65.8611 508.49 80.5501 526.54 80.5501C544.55 80.5501 559.23 65.9001 559.23 47.8421C559.23 29.8231 544.59 15.1341 526.54 15.1341Z" fill="#B9FF66"/>
<path d="M535.62 51.1711C533.74 51.1711 532.1 52.0721 531 53.4821L519.69 49.0561C519.69 48.8991 519.73 48.7821 519.73 48.6251C519.73 48.3511 519.69 48.0771 519.65 47.8031L531.24 42.4361C532.29 43.6501 533.86 44.4341 535.62 44.4731C538.83 44.4731 541.5 41.8491 541.5 38.5971C541.5 35.3461 538.87 32.6831 535.62 32.6831C532.41 32.6831 529.75 35.3071 529.75 38.5581C529.75 38.8321 529.79 39.1071 529.83 39.3811L518.24 44.7471C517.18 43.5331 515.61 42.7501 513.85 42.7101C510.64 42.7101 507.98 45.3351 507.98 48.5861C507.98 51.8371 510.6 54.5011 513.85 54.5011C515.73 54.5011 517.38 53.6001 518.47 52.1901L529.79 56.6161C529.79 56.7731 529.75 56.8901 529.75 57.0471C529.75 60.2981 532.37 62.9621 535.62 62.9621C538.83 62.9621 541.5 60.3371 541.5 57.0861C541.46 53.8351 538.83 51.2101 535.62 51.1711Z" fill="black"/>
<path d="M536.07 177.993C551.43 167.322 555.29 146.283 544.69 130.999C534.09 115.715 513.03 111.975 497.67 122.645C482.3 133.315 478.44 154.355 489.04 169.639C499.65 184.923 520.7 188.663 536.07 177.993Z" fill="black"/>
<path d="M508.41 166.373L503.48 139.619C503.24 138.248 504.5 137.112 505.83 137.465L535 145.73C536.49 146.161 536.84 148.08 535.62 149.02L511.35 167.509C510.29 168.371 508.69 167.783 508.41 166.373Z" fill="white"/>
<path d="M516.54 287.581C535.51 278.34 543.45 255.553 534.27 236.686C525.09 217.819 502.26 210.016 483.29 219.257C464.31 228.499 456.37 251.286 465.55 270.153C474.73 289.02 497.56 296.823 516.54 287.581Z" fill="#B9FF66"/>
<path d="M499.72 294.347C495.65 294.347 491.5 293.704 487.46 292.298C477.6 288.923 469.61 281.852 464.99 272.29C460.37 262.767 459.66 251.959 462.99 241.834C469.88 220.983 492.04 209.612 512.44 216.563C522.31 219.938 530.3 227.009 534.92 236.572C539.54 246.093 540.24 256.901 536.92 267.026C531.36 283.74 516.05 294.347 499.72 294.347ZM500.11 216.322C484.49 216.322 469.84 226.447 464.56 242.438C461.38 252.12 462.05 262.446 466.48 271.526C470.9 280.646 478.53 287.436 487.97 290.651C507.47 297.28 528.65 286.432 535.23 266.504C538.4 256.821 537.74 246.495 533.31 237.415C528.89 228.295 521.25 221.505 511.82 218.291C507.94 216.924 503.99 216.322 500.11 216.322Z" fill="black"/>
<path d="M519.38 247.968C518.98 257.816 502.89 280.835 499.05 286.224C498.66 286.792 497.84 286.752 497.49 286.144C495.06 282.091 487.03 268.475 482.84 257.451C481.16 253.074 480.1 249.103 480.22 246.306C480.65 235.121 489.77 226.407 500.58 226.853C511.39 227.38 519.81 236.782 519.38 247.968Z" fill="black"/>
<path d="M506.13 254.533C509.63 250.639 509.63 244.327 506.13 240.434C502.63 236.54 496.95 236.54 493.45 240.434C489.95 244.327 489.95 250.639 493.45 254.533C496.95 258.427 502.63 258.427 506.13 254.533Z" fill="#B9FF66"/>
</svg>
