<svg width="21" height="20" viewBox="0 0 21 20" fill="none" xmlns="http://www.w3.org/2000/svg">
<path d="M1.25003 13.6999C0.533028 14.1199 0.287032 15.03 0.701032 15.75C1.11503 16.47 2.03303 16.71 2.75003 16.3L1.25003 13.6999ZM20.769 5.38999C20.984 4.58999 20.509 3.77002 19.709 3.55002L6.66903 0.0600314C5.86903 -0.159969 5.04603 0.319968 4.83203 1.11997C4.61703 1.91997 5.09203 2.73992 5.89203 2.94992L17.483 6.06003L14.378 17.65C14.163 18.45 14.638 19.27 15.438 19.49C16.238 19.7 17.061 19.23 17.275 18.43L20.769 5.38999ZM2.75003 16.3L20.071 6.30002L18.571 3.69992L1.25003 13.6999L2.75003 16.3Z" fill="black"/>
</svg>
