<svg width="21" height="20" viewBox="0 0 21 20" fill="none" xmlns="http://www.w3.org/2000/svg">
<path d="M1.25004 13.6999C0.53304 14.1199 0.287029 15.03 0.701029 15.75C1.11503 16.47 2.03304 16.71 2.75004 16.3L1.25004 13.6999ZM20.7691 5.38986C20.9841 4.58986 20.5091 3.77001 19.7091 3.55001L6.66905 0.0600226C5.86905 -0.159977 5.04604 0.320081 4.83204 1.12008C4.61704 1.92008 5.09204 2.73992 5.89204 2.94992L17.483 6.06002L14.378 17.6499C14.163 18.4499 14.638 19.27 15.438 19.49C16.238 19.7 17.061 19.2299 17.275 18.4299L20.7691 5.38986ZM2.75004 16.3L20.0711 6.30001L18.5711 3.69992L1.25004 13.6999L2.75004 16.3Z" fill="#B9FF66"/>
</svg>
