<svg width="357" height="393" viewBox="0 0 357 393" fill="none" xmlns="http://www.w3.org/2000/svg">
<path d="M337.5 196.5C337.5 198.78 336.4 201.05 334.21 203.31C332.01 205.56 328.75 207.76 324.5 209.87C316 214.09 303.67 217.9 288.4 221.11C257.86 227.53 215.64 231.5 169 231.5C122.356 231.5 80.142 227.53 49.602 221.11C34.328 217.9 22 214.09 13.503 209.87C9.25399 207.76 5.98799 205.56 3.79199 203.31C1.59699 201.05 0.5 198.78 0.5 196.5C0.5 194.22 1.59699 191.95 3.79199 189.69C5.98799 187.44 9.25399 185.24 13.503 183.13C22 178.91 34.328 175.1 49.602 171.89C80.142 165.47 122.356 161.5 169 161.5C215.64 161.5 257.86 165.47 288.4 171.89C303.67 175.1 316 178.91 324.5 183.13C328.75 185.24 332.01 187.44 334.21 189.69C336.4 191.95 337.5 194.22 337.5 196.5Z" stroke="black"/>
<path d="M337.5 221.5C337.5 223.78 336.4 226.05 334.21 228.31C332.01 230.56 328.75 232.76 324.5 234.87C316 239.09 303.67 242.9 288.4 246.11C257.86 252.53 215.64 256.5 169 256.5C122.356 256.5 80.142 252.53 49.602 246.11C34.328 242.9 22 239.09 13.503 234.87C9.25399 232.76 5.98799 230.56 3.79199 228.31C1.59699 226.05 0.5 223.78 0.5 221.5C0.5 219.22 1.59699 216.95 3.79199 214.69C5.98799 212.44 9.25399 210.24 13.503 208.13C22 203.91 34.328 200.1 49.602 196.89C80.142 190.47 122.356 186.5 169 186.5C215.64 186.5 257.86 190.47 288.4 196.89C303.67 200.1 316 203.91 324.5 208.13C328.75 210.24 332.01 212.44 334.21 214.69C336.4 216.95 337.5 219.22 337.5 221.5Z" stroke="black"/>
<path d="M337.5 246.5C337.5 248.78 336.4 251.05 334.21 253.31C332.01 255.56 328.75 257.76 324.5 259.87C316 264.09 303.67 267.9 288.4 271.11C257.86 277.53 215.64 281.5 169 281.5C122.356 281.5 80.142 277.53 49.602 271.11C34.328 267.9 22 264.09 13.503 259.87C9.25399 257.76 5.98799 255.56 3.79199 253.31C1.59699 251.05 0.5 248.78 0.5 246.5C0.5 244.22 1.59699 241.95 3.79199 239.69C5.98799 237.44 9.25399 235.24 13.503 233.13C22 228.91 34.328 225.1 49.602 221.89C80.142 215.47 122.356 211.5 169 211.5C215.64 211.5 257.86 215.47 288.4 221.89C303.67 225.1 316 228.91 324.5 233.13C328.75 235.24 332.01 237.44 334.21 239.69C336.4 241.95 337.5 244.22 337.5 246.5Z" stroke="black"/>
<path d="M252.34 64.6299L252.51 65.53L253.18 64.8999L300.31 20.1799L272.34 78.8201L271.94 79.6499L272.86 79.53L337.28 71.0601L280.18 102.06L279.37 102.5L280.18 102.94L337.28 133.94L272.86 125.47L271.94 125.35L272.34 126.18L300.31 184.82L253.18 140.1L252.51 139.47L252.34 140.37L240.5 204.26L228.66 140.37L228.49 139.47L227.82 140.1L180.69 184.82L208.66 126.18L209.06 125.35L208.14 125.47L143.724 133.94L200.82 102.94L201.63 102.5L200.82 102.06L143.724 71.0601L208.14 79.53L209.06 79.6499L208.66 78.8201L180.69 20.1799L227.82 64.8999L228.49 65.53L228.66 64.6299L240.5 0.73999L252.34 64.6299Z" stroke="black"/>
<path d="M277 175L294.79 220.06L341.11 205.87L316.97 247.88L356.94 275.25L309.06 282.56L312.58 330.88L277 298L241.42 330.88L244.94 282.56L197.06 275.25L237.03 247.88L212.89 205.87L259.21 220.06L277 175Z" fill="#D9D9D9"/>
<path d="M112.194 304.1L135.134 262L158.26 304.1L200.27 327.13L158.26 350.17L135.134 392.27L112.194 350.17L70 327.13L112.194 304.1Z" fill="#B9FF66"/>
<path d="M152.5 246.5C186.742 246.5 214.5 218.742 214.5 184.5C214.5 150.258 186.742 122.5 152.5 122.5C118.258 122.5 90.5 150.258 90.5 184.5C90.5 218.742 118.258 246.5 152.5 246.5Z" fill="black" stroke="black"/>
<path d="M132 191C137.523 191 142 182.046 142 171C142 159.954 137.523 151 132 151C126.477 151 122 159.954 122 171C122 182.046 126.477 191 132 191Z" fill="white"/>
<path d="M173 191C178.523 191 183 182.046 183 171C183 159.954 178.523 151 173 151C167.477 151 163 159.954 163 171C163 182.046 167.477 191 173 191Z" fill="white"/>
</svg>
