<svg width="321" height="39" viewBox="0 0 321 39" fill="none" xmlns="http://www.w3.org/2000/svg">
<mask id="mask0_1_820" style="mask-type:luminance" maskUnits="userSpaceOnUse" x="0" y="1" width="36" height="37">
<path d="M36 1.02588H0V37.0259H36V1.02588Z" fill="white"/>
</mask>
<g mask="url(#mask0_1_820)">
<path d="M17.999 6.5606L35.6 1.375L30.464 19.026L35.6 36.6269L17.999 31.4909L0.348022 36.6269L5.53302 19.026L0.348022 1.375L17.999 6.5606Z" fill="black"/>
</g>
<path d="M56.784 3.096C64.812 3.096 70.032 8.064 70.032 15.696C70.032 23.292 64.812 28.224 56.784 28.224H48V3.096H56.784ZM53.04 23.94H56.604C61.896 23.94 64.884 20.916 64.884 15.696C64.884 10.476 61.896 7.344 56.604 7.344H53.04V23.94ZM73.805 28.224V8.28H78.845V28.224H73.805ZM76.361 5.904C74.561 5.904 73.265 4.608 73.265 2.952C73.265 1.296 74.561 0 76.361 0C78.125 0 79.457 1.296 79.457 2.952C79.457 4.608 78.125 5.904 76.361 5.904ZM82.528 18.18C82.528 11.952 86.56 7.956 91.636 7.956C94.768 7.956 97.036 9.396 98.224 11.124V8.28H103.3V28.368C103.3 33.768 99.988 38.052 93.436 38.052C87.82 38.052 83.896 35.244 83.392 30.672H88.396C88.9 32.472 90.772 33.66 93.292 33.66C96.064 33.66 98.224 32.076 98.224 28.368V25.272C97.036 27 94.768 28.548 91.636 28.548C86.56 28.548 82.528 24.408 82.528 18.18ZM98.224 18.252C98.224 14.472 95.704 12.384 92.932 12.384C90.232 12.384 87.676 14.4 87.676 18.18C87.676 21.96 90.232 24.12 92.932 24.12C95.704 24.12 98.224 22.032 98.224 18.252ZM108.223 28.224V8.28H113.263V28.224H108.223ZM110.779 5.904C108.979 5.904 107.683 4.608 107.683 2.952C107.683 1.296 108.979 0 110.779 0C112.543 0 113.875 1.296 113.875 2.952C113.875 4.608 112.543 5.904 110.779 5.904ZM119.034 22.032V12.42H116.658V8.28H119.034V3.348H124.11V8.28H128.574V12.42H124.11V22.068C124.11 23.4 124.65 23.976 126.234 23.976H128.574V28.224H125.406C121.59 28.224 119.034 26.604 119.034 22.032ZM130.903 18.18C130.903 11.952 134.935 7.956 140.011 7.956C143.215 7.956 145.411 9.468 146.599 11.124V8.28H151.675V28.224H146.599V25.308C145.411 27.036 143.143 28.548 139.975 28.548C134.935 28.548 130.903 24.408 130.903 18.18ZM146.599 18.252C146.599 14.472 144.079 12.384 141.307 12.384C138.607 12.384 136.051 14.4 136.051 18.18C136.051 21.96 138.607 24.12 141.307 24.12C144.079 24.12 146.599 22.032 146.599 18.252ZM156.598 28.224V1.584H161.638V28.224H156.598ZM178.209 2.772C183.825 2.772 188.289 5.616 189.909 10.656H184.113C182.961 8.532 180.873 7.416 178.209 7.416C173.709 7.416 170.577 10.62 170.577 15.624C170.577 20.736 173.745 23.904 178.425 23.904C182.313 23.904 184.797 21.672 185.553 18.108H176.913V14.256H190.521V18.648C189.513 23.76 184.941 28.44 178.245 28.44C170.937 28.44 165.393 23.148 165.393 15.624C165.393 8.1 170.937 2.772 178.209 2.772ZM199.29 18.288V28.224H194.25V8.28H199.29V11.376C200.55 9.324 202.638 7.992 205.41 7.992V13.284H204.078C201.09 13.284 199.29 14.436 199.29 18.288ZM228.065 18.252C228.065 24.516 223.457 28.548 217.661 28.548C211.901 28.548 207.545 24.516 207.545 18.252C207.545 11.952 212.045 7.956 217.805 7.956C223.565 7.956 228.065 11.952 228.065 18.252ZM212.657 18.252C212.657 22.212 214.961 24.156 217.661 24.156C220.325 24.156 222.881 22.212 222.881 18.252C222.881 14.256 220.397 12.348 217.733 12.348C215.069 12.348 212.657 14.256 212.657 18.252ZM235.398 28.224L229.53 8.28H234.642L238.17 23.472L241.986 8.28H247.314L251.058 23.436L254.586 8.28H259.41L253.578 28.224H248.142L244.506 14.292L240.87 28.224H235.398ZM262.929 22.032V12.42H260.553V8.28H262.929V3.348H268.005V8.28H272.469V12.42H268.005V22.068C268.005 23.4 268.545 23.976 270.129 23.976H272.469V28.224H269.301C265.485 28.224 262.929 26.604 262.929 22.032ZM276.094 28.224V1.584H281.134V10.764C282.43 9.072 284.662 7.992 287.326 7.992C291.826 7.992 295.102 11.016 295.102 16.524V28.224H290.062V17.208C290.062 14.004 288.298 12.276 285.634 12.276C282.898 12.276 281.134 14.004 281.134 17.208V28.224H276.094ZM314.943 28.224L309.507 19.764L304.575 28.224H298.887L306.807 15.552L298.779 3.096H304.575L310.011 11.52L314.907 3.096H320.595L312.711 15.732L320.739 28.224H314.943Z" fill="black"/>
</svg>
